<svg xmlns="http://www.w3.org/2000/svg" xmlns:xlink="http://www.w3.org/1999/xlink" contentStyleType="text/css" data-diagram-type="CLASS" height="731px" preserveAspectRatio="none" style="width:679px;height:731px;background:#FFFFFF;" version="1.1" viewBox="0 0 679 731" width="679px" zoomAndPan="magnify"><title>K&#233;p forr&#225;s</title><defs/><g><text fill="#000000" font-family="sans-serif" font-size="14" font-weight="bold" lengthAdjust="spacing" textLength="72.2397" x="296.3949" y="24.9659">K&#233;p forr&#225;s</text><!--class ImageSource--><g class="entity" data-entity="ImageSource" data-source-line="4" data-uid="ent0002" id="entity_ImageSource"><rect fill="#F1F1F1" height="257.7471" rx="2.5" ry="2.5" style="stroke:#181818;stroke-width:0.5;" width="181.5394" x="248.25" y="174.1379"/><ellipse cx="291.212" cy="190.1379" fill="#ADD1B2" rx="11" ry="11" style="stroke:#181818;stroke-width:1;"/><path d="M290.6807,197.0598 Q288.9307,197.0598 287.7901,196.3254 Q286.6651,195.5754 286.1026,194.2317 Q285.5557,192.8723 285.5557,191.0754 Q285.5557,189.0442 286.212,187.591 Q286.8682,186.1379 288.1495,185.3567 Q289.4307,184.5754 291.3057,184.5754 Q292.1963,184.5754 292.8682,184.7629 Q293.5401,184.9348 294.2276,185.2785 L293.4151,187.2942 Q292.7901,186.9817 292.2432,186.8567 Q291.712,186.7317 291.2276,186.7317 Q290.0557,186.7317 289.3526,187.2629 Q288.6495,187.7942 288.3526,188.7473 Q288.0557,189.7004 288.0557,190.966 Q288.0557,192.9817 288.7745,193.9504 Q289.4932,194.9035 291.087,194.9035 Q291.6807,194.9035 292.3057,194.7473 Q292.9307,194.591 293.7588,194.216 L293.7588,196.4348 Q293.0245,196.7473 292.2276,196.9035 Q291.4463,197.0598 290.6807,197.0598 Z " fill="#000000"/><text fill="#000000" font-family="sans-serif" font-size="14" lengthAdjust="spacing" textLength="87.4017" x="311.4257" y="195.5699">ImageSource</text><line style="stroke:#181818;stroke-width:0.5;" x1="249.25" x2="428.7894" y1="206.1379" y2="206.1379"/><text fill="#000000" font-family="sans-serif" font-size="14" lengthAdjust="spacing" textLength="79.4497" x="254.25" y="225.1039">Mat original</text><text fill="#000000" font-family="sans-serif" font-size="14" lengthAdjust="spacing" textLength="140.8674" x="254.25" y="244.1718">CachedImage cached</text><text fill="#000000" font-family="sans-serif" font-size="14" lengthAdjust="spacing" textLength="72.7297" x="254.25" y="263.2397">int amount</text><text fill="#000000" font-family="sans-serif" font-size="14" lengthAdjust="spacing" textLength="83.5517" x="254.25" y="282.3076">Filter[] filters</text><text fill="#000000" font-family="sans-serif" font-size="14" lengthAdjust="spacing" textLength="3.64" x="254.25" y="301.3755">&#160;</text><text fill="#000000" font-family="sans-serif" font-size="14" lengthAdjust="spacing" textLength="81.5217" x="254.25" y="320.4434">bool rotated</text><text fill="#000000" font-family="sans-serif" font-size="14" lengthAdjust="spacing" textLength="126.5035" x="254.25" y="339.5114">size_t width, height</text><line style="stroke:#181818;stroke-width:0.5;" x1="249.25" x2="428.7894" y1="347.6133" y2="347.6133"/><text fill="#000000" font-family="sans-serif" font-size="14" lengthAdjust="spacing" textLength="169.5394" x="254.25" y="366.5793">void add_filter(Filter filter)</text><text fill="#000000" font-family="sans-serif" font-size="14" lengthAdjust="spacing" textLength="115.4016" x="254.25" y="385.6472">void clear_filters()</text><text fill="#000000" font-family="sans-serif" font-size="14" lengthAdjust="spacing" textLength="119.3635" x="254.25" y="404.7151">void apply_filters()</text><text fill="#000000" font-family="sans-serif" font-size="14" lengthAdjust="spacing" textLength="90.7337" x="254.25" y="423.783">Mat get_img()</text></g><!--class Filter--><g class="entity" data-entity="Filter" data-source-line="19" data-uid="ent0003" id="entity_Filter"><rect fill="#F1F1F1" height="67.0679" rx="2.5" ry="2.5" style="stroke:#181818;stroke-width:0.5;" width="140.0295" x="269" y="491.8879"/><ellipse cx="319.2108" cy="507.8879" fill="#A9DCDF" rx="11" ry="11" style="stroke:#181818;stroke-width:1;"/><path d="M314.3827,513.6379 L317.7264,501.4504 L320.8671,501.4504 L324.2421,513.6379 L321.7733,513.6379 L321.0389,510.6223 L317.5233,510.6223 L316.7733,513.6379 L314.3827,513.6379 Z M318.7889,505.591 L318.0389,508.591 L320.5546,508.591 L319.8358,505.591 Q319.6952,505.0129 319.5702,504.466 Q319.4452,503.9035 319.3046,503.3254 Q319.1952,503.9035 319.0546,504.466 Q318.9139,505.0129 318.7889,505.591 Z " fill="#000000"/><text fill="#000000" font-family="sans-serif" font-size="14" font-style="italic" lengthAdjust="spacing" textLength="31.1079" x="339.7108" y="513.3199">Filter</text><line style="stroke:#181818;stroke-width:0.5;" x1="270" x2="408.0295" y1="523.8879" y2="523.8879"/><line style="stroke:#181818;stroke-width:0.5;" x1="270" x2="408.0295" y1="531.8879" y2="531.8879"/><text fill="#000000" font-family="sans-serif" font-size="14" lengthAdjust="spacing" textLength="128.0295" x="275" y="550.8539">Mat apply(Mat img)</text></g><!--class Mask--><g class="entity" data-entity="Mask" data-source-line="25" data-uid="ent0005" id="entity_Mask"><rect fill="#F1F1F1" height="86.1358" rx="2.5" ry="2.5" style="stroke:#181818;stroke-width:0.5;" width="140.0295" x="7" y="628.4879"/><ellipse cx="55.3978" cy="644.4879" fill="#ADD1B2" rx="11" ry="11" style="stroke:#181818;stroke-width:1;"/><path d="M54.8666,651.4098 Q53.1166,651.4098 51.976,650.6754 Q50.851,649.9254 50.2885,648.5817 Q49.7416,647.2223 49.7416,645.4254 Q49.7416,643.3942 50.3978,641.941 Q51.0541,640.4879 52.3353,639.7067 Q53.6166,638.9254 55.4916,638.9254 Q56.3822,638.9254 57.0541,639.1129 Q57.726,639.2848 58.4135,639.6285 L57.601,641.6442 Q56.976,641.3317 56.4291,641.2067 Q55.8978,641.0817 55.4135,641.0817 Q54.2416,641.0817 53.5385,641.6129 Q52.8353,642.1442 52.5385,643.0973 Q52.2416,644.0504 52.2416,645.316 Q52.2416,647.3317 52.9603,648.3004 Q53.6791,649.2535 55.2728,649.2535 Q55.8666,649.2535 56.4916,649.0973 Q57.1166,648.941 57.9447,648.566 L57.9447,650.7848 Q57.2103,651.0973 56.4135,651.2535 Q55.6322,651.4098 54.8666,651.4098 Z " fill="#000000"/><text fill="#000000" font-family="sans-serif" font-size="14" lengthAdjust="spacing" textLength="34.7339" x="75.8978" y="649.9199">Mask</text><line style="stroke:#181818;stroke-width:0.5;" x1="8" x2="146.0295" y1="660.4879" y2="660.4879"/><text fill="#000000" font-family="sans-serif" font-size="14" lengthAdjust="spacing" textLength="64.3718" x="13" y="679.4539">Mat mask</text><line style="stroke:#181818;stroke-width:0.5;" x1="8" x2="146.0295" y1="687.5558" y2="687.5558"/><text fill="#000000" font-family="sans-serif" font-size="14" lengthAdjust="spacing" textLength="128.0295" x="13" y="706.5218">Mat apply(Mat img)</text></g><!--class Size--><g class="entity" data-entity="Size" data-source-line="31" data-uid="ent0007" id="entity_Size"><rect fill="#F1F1F1" height="105.2038" rx="2.5" ry="2.5" style="stroke:#181818;stroke-width:0.5;" width="140.0295" x="182" y="618.9579"/><ellipse cx="234.8778" cy="634.9579" fill="#ADD1B2" rx="11" ry="11" style="stroke:#181818;stroke-width:1;"/><path d="M234.3466,641.8798 Q232.5966,641.8798 231.4559,641.1454 Q230.3309,640.3954 229.7684,639.0517 Q229.2216,637.6923 229.2216,635.8954 Q229.2216,633.8642 229.8778,632.411 Q230.5341,630.9579 231.8153,630.1767 Q233.0966,629.3954 234.9716,629.3954 Q235.8622,629.3954 236.5341,629.5829 Q237.2059,629.7548 237.8934,630.0985 L237.0809,632.1142 Q236.4559,631.8017 235.9091,631.6767 Q235.3778,631.5517 234.8934,631.5517 Q233.7216,631.5517 233.0184,632.0829 Q232.3153,632.6142 232.0184,633.5673 Q231.7216,634.5204 231.7216,635.786 Q231.7216,637.8017 232.4403,638.7704 Q233.1591,639.7235 234.7528,639.7235 Q235.3466,639.7235 235.9716,639.5673 Q236.5966,639.411 237.4247,639.036 L237.4247,641.2548 Q236.6903,641.5673 235.8934,641.7235 Q235.1122,641.8798 234.3466,641.8798 Z " fill="#000000"/><text fill="#000000" font-family="sans-serif" font-size="14" lengthAdjust="spacing" textLength="25.7739" x="255.3778" y="640.3899">Size</text><line style="stroke:#181818;stroke-width:0.5;" x1="183" x2="321.0295" y1="650.9579" y2="650.9579"/><text fill="#000000" font-family="sans-serif" font-size="14" lengthAdjust="spacing" textLength="57.8898" x="188" y="669.9239">int width</text><text fill="#000000" font-family="sans-serif" font-size="14" lengthAdjust="spacing" textLength="63.4337" x="188" y="688.9918">int height</text><line style="stroke:#181818;stroke-width:0.5;" x1="183" x2="321.0295" y1="697.0938" y2="697.0938"/><text fill="#000000" font-family="sans-serif" font-size="14" lengthAdjust="spacing" textLength="128.0295" x="188" y="716.0597">Mat apply(Mat img)</text></g><!--class Padding--><g class="entity" data-entity="Padding" data-source-line="38" data-uid="ent0009" id="entity_Padding"><rect fill="#F1F1F1" height="86.1358" rx="2.5" ry="2.5" style="stroke:#181818;stroke-width:0.5;" width="140.0295" x="357" y="628.4879"/><ellipse cx="396.1253" cy="644.4879" fill="#ADD1B2" rx="11" ry="11" style="stroke:#181818;stroke-width:1;"/><path d="M395.594,651.4098 Q393.844,651.4098 392.7034,650.6754 Q391.5784,649.9254 391.0159,648.5817 Q390.469,647.2223 390.469,645.4254 Q390.469,643.3942 391.1253,641.941 Q391.7815,640.4879 393.0628,639.7067 Q394.344,638.9254 396.219,638.9254 Q397.1097,638.9254 397.7815,639.1129 Q398.4534,639.2848 399.1409,639.6285 L398.3284,641.6442 Q397.7034,641.3317 397.1565,641.2067 Q396.6253,641.0817 396.1409,641.0817 Q394.969,641.0817 394.2659,641.6129 Q393.5628,642.1442 393.2659,643.0973 Q392.969,644.0504 392.969,645.316 Q392.969,647.3317 393.6878,648.3004 Q394.4065,649.2535 396.0003,649.2535 Q396.594,649.2535 397.219,649.0973 Q397.844,648.941 398.6722,648.566 L398.6722,650.7848 Q397.9378,651.0973 397.1409,651.2535 Q396.3597,651.4098 395.594,651.4098 Z " fill="#000000"/><text fill="#000000" font-family="sans-serif" font-size="14" lengthAdjust="spacing" textLength="54.4178" x="415.4864" y="649.9199">Padding</text><line style="stroke:#181818;stroke-width:0.5;" x1="358" x2="496.0295" y1="660.4879" y2="660.4879"/><text fill="#000000" font-family="sans-serif" font-size="14" lengthAdjust="spacing" textLength="75.5157" x="363" y="679.4539">int padding</text><line style="stroke:#181818;stroke-width:0.5;" x1="358" x2="496.0295" y1="687.5558" y2="687.5558"/><text fill="#000000" font-family="sans-serif" font-size="14" lengthAdjust="spacing" textLength="128.0295" x="363" y="706.5218">Mat apply(Mat img)</text></g><!--class Rotate--><g class="entity" data-entity="Rotate" data-source-line="44" data-uid="ent0011" id="entity_Rotate"><rect fill="#F1F1F1" height="86.1358" rx="2.5" ry="2.5" style="stroke:#181818;stroke-width:0.5;" width="140.0295" x="532" y="628.4879"/><ellipse cx="576.2472" cy="644.4879" fill="#ADD1B2" rx="11" ry="11" style="stroke:#181818;stroke-width:1;"/><path d="M575.7159,651.4098 Q573.9659,651.4098 572.8253,650.6754 Q571.7003,649.9254 571.1378,648.5817 Q570.5909,647.2223 570.5909,645.4254 Q570.5909,643.3942 571.2472,641.941 Q571.9034,640.4879 573.1847,639.7067 Q574.4659,638.9254 576.3409,638.9254 Q577.2315,638.9254 577.9034,639.1129 Q578.5753,639.2848 579.2628,639.6285 L578.4503,641.6442 Q577.8253,641.3317 577.2784,641.2067 Q576.7472,641.0817 576.2628,641.0817 Q575.0909,641.0817 574.3878,641.6129 Q573.6847,642.1442 573.3878,643.0973 Q573.0909,644.0504 573.0909,645.316 Q573.0909,647.3317 573.8097,648.3004 Q574.5284,649.2535 576.1222,649.2535 Q576.7159,649.2535 577.3409,649.0973 Q577.9659,648.941 578.794,648.566 L578.794,650.7848 Q578.0597,651.0973 577.2628,651.2535 Q576.4815,651.4098 575.7159,651.4098 Z " fill="#000000"/><text fill="#000000" font-family="sans-serif" font-size="14" lengthAdjust="spacing" textLength="43.0358" x="596.7465" y="649.9199">Rotate</text><line style="stroke:#181818;stroke-width:0.5;" x1="533" x2="671.0295" y1="660.4879" y2="660.4879"/><text fill="#000000" font-family="sans-serif" font-size="14" lengthAdjust="spacing" textLength="72.9117" x="538" y="679.4539">bool rotate</text><line style="stroke:#181818;stroke-width:0.5;" x1="533" x2="671.0295" y1="687.5558" y2="687.5558"/><text fill="#000000" font-family="sans-serif" font-size="14" lengthAdjust="spacing" textLength="128.0295" x="538" y="706.5218">Mat apply(Mat img)</text></g><!--class Tile--><g class="entity" data-entity="Tile" data-source-line="50" data-uid="ent0013" id="entity_Tile"><rect fill="#F1F1F1" height="105.2038" rx="2.5" ry="2.5" style="stroke:#181818;stroke-width:0.5;" width="144.1035" x="464.96" y="250.4079"/><ellipse cx="521.3098" cy="266.4079" fill="#ADD1B2" rx="11" ry="11" style="stroke:#181818;stroke-width:1;"/><path d="M520.7786,273.3298 Q519.0286,273.3298 517.8879,272.5954 Q516.7629,271.8454 516.2004,270.5017 Q515.6536,269.1423 515.6536,267.3454 Q515.6536,265.3142 516.3098,263.861 Q516.9661,262.4079 518.2473,261.6267 Q519.5286,260.8454 521.4036,260.8454 Q522.2942,260.8454 522.9661,261.0329 Q523.6379,261.2048 524.3254,261.5485 L523.5129,263.5642 Q522.8879,263.2517 522.3411,263.1267 Q521.8098,263.0017 521.3254,263.0017 Q520.1536,263.0017 519.4504,263.5329 Q518.7473,264.0642 518.4504,265.0173 Q518.1536,265.9704 518.1536,267.236 Q518.1536,269.2517 518.8723,270.2204 Q519.5911,271.1735 521.1848,271.1735 Q521.7786,271.1735 522.4036,271.0173 Q523.0286,270.861 523.8567,270.486 L523.8567,272.7048 Q523.1223,273.0173 522.3254,273.1735 Q521.5442,273.3298 520.7786,273.3298 Z " fill="#000000"/><text fill="#000000" font-family="sans-serif" font-size="14" lengthAdjust="spacing" textLength="22.9039" x="541.8098" y="271.8399">Tile</text><line style="stroke:#181818;stroke-width:0.5;" x1="465.96" x2="608.0635" y1="282.4079" y2="282.4079"/><text fill="#000000" font-family="sans-serif" font-size="14" lengthAdjust="spacing" textLength="132.1035" x="470.96" y="301.3739">ImageSource image</text><text fill="#000000" font-family="sans-serif" font-size="14" lengthAdjust="spacing" textLength="81.1997" x="470.96" y="320.4418">Point corner</text><text fill="#000000" font-family="sans-serif" font-size="14" lengthAdjust="spacing" textLength="81.5217" x="470.96" y="339.5097">bool rotated</text><line style="stroke:#181818;stroke-width:0.5;" x1="465.96" x2="608.0635" y1="347.6117" y2="347.6117"/></g><!--class CachedImage--><g class="entity" data-entity="CachedImage" data-source-line="57" data-uid="ent0015" id="entity_CachedImage"><rect fill="#F1F1F1" height="105.2038" rx="2.5" ry="2.5" style="stroke:#181818;stroke-width:0.5;" width="166.8534" x="46.59" y="250.4079"/><ellipse cx="81.425" cy="266.4079" fill="#ADD1B2" rx="11" ry="11" style="stroke:#181818;stroke-width:1;"/><path d="M80.8937,273.3298 Q79.1437,273.3298 78.0031,272.5954 Q76.8781,271.8454 76.3156,270.5017 Q75.7687,269.1423 75.7687,267.3454 Q75.7687,265.3142 76.425,263.861 Q77.0812,262.4079 78.3625,261.6267 Q79.6437,260.8454 81.5187,260.8454 Q82.4094,260.8454 83.0812,261.0329 Q83.7531,261.2048 84.4406,261.5485 L83.6281,263.5642 Q83.0031,263.2517 82.4562,263.1267 Q81.925,263.0017 81.4406,263.0017 Q80.2687,263.0017 79.5656,263.5329 Q78.8625,264.0642 78.5656,265.0173 Q78.2687,265.9704 78.2687,267.236 Q78.2687,269.2517 78.9875,270.2204 Q79.7062,271.1735 81.3,271.1735 Q81.8937,271.1735 82.5187,271.0173 Q83.1437,270.861 83.9719,270.486 L83.9719,272.7048 Q83.2375,273.0173 82.4406,273.1735 Q81.6594,273.3298 80.8937,273.3298 Z " fill="#000000"/><text fill="#000000" font-family="sans-serif" font-size="14" lengthAdjust="spacing" textLength="90.7757" x="99.8328" y="271.8399">CachedImage</text><line style="stroke:#181818;stroke-width:0.5;" x1="47.59" x2="212.4434" y1="282.4079" y2="282.4079"/><text fill="#000000" font-family="sans-serif" font-size="14" lengthAdjust="spacing" textLength="154.8534" x="52.59" y="301.3739">ICachableImage source</text><text fill="#000000" font-family="sans-serif" font-size="14" lengthAdjust="spacing" textLength="67.0877" x="52.59" y="320.4418">Mat cache</text><text fill="#000000" font-family="sans-serif" font-size="14" lengthAdjust="spacing" textLength="62.9998" x="52.59" y="339.5097">bool dirty</text><line style="stroke:#181818;stroke-width:0.5;" x1="47.59" x2="212.4434" y1="347.6117" y2="347.6117"/></g><!--class ICache--><g class="entity" data-entity="ICache" data-source-line="65" data-uid="ent0017" id="entity_ICache"><rect fill="#F1F1F1" height="67.0679" rx="2.5" ry="2.5" style="stroke:#181818;stroke-width:0.5;" width="107.9136" x="76.06" y="47.0679"/><ellipse cx="106.2582" cy="63.0679" fill="#B4A7E5" rx="11" ry="11" style="stroke:#181818;stroke-width:1;"/><path d="M102.2895,69.5679 L102.2895,67.8648 L104.6488,67.5992 L104.6488,59.396 L102.2895,59.1304 L102.2895,57.4273 L109.4301,57.4273 L109.4301,59.1304 L107.0082,59.396 L107.0082,67.5992 L109.4301,67.8648 L109.4301,69.5679 L102.2895,69.5679 Z " fill="#000000"/><text fill="#000000" font-family="sans-serif" font-size="14" font-style="italic" lengthAdjust="spacing" textLength="42.1398" x="123.6356" y="68.4999">ICache</text><line style="stroke:#181818;stroke-width:0.5;" x1="77.06" x2="182.9736" y1="79.0679" y2="79.0679"/><line style="stroke:#181818;stroke-width:0.5;" x1="77.06" x2="182.9736" y1="87.0679" y2="87.0679"/><text fill="#000000" font-family="sans-serif" font-size="14" lengthAdjust="spacing" textLength="95.9136" x="82.06" y="106.0339">void set_dirty()</text></g><!--class ICachableImage--><g class="entity" data-entity="ICachableImage" data-source-line="69" data-uid="ent0018" id="entity_ICachableImage"><rect fill="#F1F1F1" height="67.0679" rx="2.5" ry="2.5" style="stroke:#181818;stroke-width:0.5;" width="135.3395" x="271.35" y="47.0679"/><ellipse cx="287.115" cy="63.0679" fill="#B4A7E5" rx="11" ry="11" style="stroke:#181818;stroke-width:1;"/><path d="M283.1462,69.5679 L283.1462,67.8648 L285.5056,67.5992 L285.5056,59.396 L283.1462,59.1304 L283.1462,57.4273 L290.2868,57.4273 L290.2868,59.1304 L287.865,59.396 L287.865,67.5992 L290.2868,67.8648 L290.2868,69.5679 L283.1462,69.5679 Z " fill="#000000"/><text fill="#000000" font-family="sans-serif" font-size="14" font-style="italic" lengthAdjust="spacing" textLength="101.6396" x="301.2849" y="68.4999">ICachableImage</text><line style="stroke:#181818;stroke-width:0.5;" x1="272.35" x2="405.6895" y1="79.0679" y2="79.0679"/><line style="stroke:#181818;stroke-width:0.5;" x1="272.35" x2="405.6895" y1="87.0679" y2="87.0679"/><text fill="#000000" font-family="sans-serif" font-size="14" lengthAdjust="spacing" textLength="123.3395" x="277.35" y="106.0339">Mat get_cachable()</text></g><!--reverse link ImageSource to Filter--><g class="link" data-entity-1="ImageSource" data-entity-2="Filter" data-source-line="22" data-uid="lnk4" id="link_ImageSource_Filter"><path codeLine="22" d="M339.01,444.2279 C339.01,466.1979 339.01,475.1879 339.01,491.5679" fill="none" id="ImageSource-backto-Filter" style="stroke:#181818;stroke-width:1;"/><polygon fill="#181818" points="339.01,432.2279,335.01,438.2279,339.01,444.2279,343.01,438.2279,339.01,432.2279" style="stroke:#181818;stroke-width:1;"/></g><!--reverse link Filter to Mask--><g class="link" data-entity-1="Filter" data-entity-2="Mask" data-source-line="29" data-uid="lnk6" id="link_Filter_Mask"><path codeLine="29" d="M259.0577,567.6169 C225.7477,584.9769 200.44,598.5379 164.01,618.9579 C158.5,622.0479 152.82,625.2879 147.12,628.5779" fill="none" id="Filter-backto-Mask" style="stroke:#181818;stroke-width:1;"/><polygon fill="none" points="275.02,559.2979,256.2847,562.2961,261.8307,572.9377,275.02,559.2979" style="stroke:#181818;stroke-width:1;"/></g><!--reverse link Filter to Size--><g class="link" data-entity-1="Filter" data-entity-2="Size" data-source-line="36" data-uid="lnk8" id="link_Filter_Size"><path codeLine="36" d="M309.9651,574.5363 C299.3851,592.0563 295.41,598.6579 283.45,618.4779" fill="none" id="Filter-backto-Size" style="stroke:#181818;stroke-width:1;"/><polygon fill="none" points="319.27,559.1279,304.829,571.4347,315.1013,577.638,319.27,559.1279" style="stroke:#181818;stroke-width:1;"/></g><!--reverse link Filter to Padding--><g class="link" data-entity-1="Filter" data-entity-2="Padding" data-source-line="42" data-uid="lnk10" id="link_Filter_Padding"><path codeLine="42" d="M368.3634,574.4887 C380.8434,594.9187 387.65,606.0779 401.11,628.1279" fill="none" id="Filter-backto-Padding" style="stroke:#181818;stroke-width:1;"/><polygon fill="none" points="358.98,559.1279,363.2431,577.6164,373.4836,571.3609,358.98,559.1279" style="stroke:#181818;stroke-width:1;"/></g><!--reverse link Filter to Rotate--><g class="link" data-entity-1="Filter" data-entity-2="Rotate" data-source-line="48" data-uid="lnk12" id="link_Filter_Rotate"><path codeLine="48" d="M419.3746,567.534 C452.8846,584.884 478.4,598.4879 515.01,618.9579 C520.53,622.0379 526.22,625.2779 531.92,628.5579" fill="none" id="Filter-backto-Rotate" style="stroke:#181818;stroke-width:1;"/><polygon fill="none" points="403.39,559.2579,416.6159,572.8622,422.1333,562.2058,403.39,559.2579" style="stroke:#181818;stroke-width:1;"/></g><!--link ImageSource to Tile--><g class="link" data-entity-1="ImageSource" data-entity-2="Tile" data-source-line="55" data-uid="lnk14" id="link_ImageSource_Tile"><path codeLine="55" d="M430.28,303.0079 C441.68,303.0079 441.07,303.0079 452.47,303.0079" fill="none" id="ImageSource-to-Tile" style="stroke:#181818;stroke-width:1;"/><polygon fill="#181818" points="464.47,303.0079,458.47,299.0079,452.47,303.0079,458.47,307.0079,464.47,303.0079" style="stroke:#181818;stroke-width:1;"/></g><!--reverse link CachedImage to ImageSource--><g class="link" data-entity-1="CachedImage" data-entity-2="ImageSource" data-source-line="62" data-uid="lnk16" id="link_CachedImage_ImageSource"><path codeLine="62" d="M225.7,303.0079 C237.12,303.0079 236.54,303.0079 247.96,303.0079" fill="none" id="CachedImage-backto-ImageSource" style="stroke:#181818;stroke-width:1;"/><polygon fill="#181818" points="213.7,303.0079,219.7,307.0079,225.7,303.0079,219.7,299.0079,213.7,303.0079" style="stroke:#181818;stroke-width:1;"/></g><!--reverse link ICache to CachedImage--><g class="link" data-entity-1="ICache" data-entity-2="CachedImage" data-source-line="73" data-uid="lnk19" id="link_ICache_CachedImage"><path codeLine="73" d="M130.01,132.5979 C130.01,168.3879 130.01,208.0079 130.01,249.9179" fill="none" id="ICache-backto-CachedImage" style="stroke:#181818;stroke-width:1;"/><polygon fill="none" points="130.01,114.5979,124.01,132.5979,136.01,132.5979,130.01,114.5979" style="stroke:#181818;stroke-width:1;"/></g><!--reverse link ICachableImage to ImageSource--><g class="link" data-entity-1="ICachableImage" data-entity-2="ImageSource" data-source-line="74" data-uid="lnk20" id="link_ICachableImage_ImageSource"><path codeLine="74" d="M339.01,132.5979 C339.01,148.9379 339.01,151.8179 339.01,173.6679" fill="none" id="ICachableImage-backto-ImageSource" style="stroke:#181818;stroke-width:1;"/><polygon fill="none" points="339.01,114.5979,333.01,132.5979,345.01,132.5979,339.01,114.5979" style="stroke:#181818;stroke-width:1;"/></g><!--SRC=[ZPB1JWCX48RlF0N7shXluCt4n9WcZVLcJ3DbwIwHNJOmrTJgmtZqEVfYmW1TMcFQFMnWcF-RuMTGePRyOVypyBMnTl_j61CQdEFt7JHoOJPMIBvZt7ypG6wiQbGFcWAt85fPKo8NjAQmwf53PpOzqlPEQPJs-OMlQU4eIB-LCPfRWu19wTI7N29_LpMsrxoLgcbnJ7ypgkPGryi8caHmmbwDAK9Bi2d9JOe360QzFJa8bseaBbNN-CWNOx1oQ45WwhkuEyadOUMJGsvfqRIgae9b1sVWNWjvvxV_irArcq_F2S8CMNXB4YJuIjOSTeL3Pw41bA5pxwBgcu8xnCXbg2JFj4TwmGGhtlGoM5HdrfFIcLIwgyAQedCJsXN6zjxfFqDq_2RLb7YPNOvhAX52iD8o1Xt93ctJI8yrQcLnwokKc6bLjkbVtZSdxHfySMBdGZH-peyPGUAWdQIERUoE1bEaioXAL7AkQ8IT8EYyxEmN]--></g></svg>