<svg xmlns="http://www.w3.org/2000/svg" xmlns:xlink="http://www.w3.org/1999/xlink" contentStyleType="text/css" data-diagram-type="CLASS" height="248px" preserveAspectRatio="none" style="width:516px;height:248px;background:#FFFFFF;" version="1.1" viewBox="0 0 516 248" width="516px" zoomAndPan="magnify"><title>Csemp&#233;z&#233;s</title><defs/><g><text fill="#000000" font-family="sans-serif" font-size="14" font-weight="bold" lengthAdjust="spacing" textLength="77.5177" x="212.3102" y="24.9659">Csemp&#233;z&#233;s</text><!--class Tiling--><g class="entity" data-entity="Tiling" data-source-line="4" data-uid="ent0002" id="entity_Tiling"><rect fill="#F1F1F1" height="67.0679" rx="2.5" ry="2.5" style="stroke:#181818;stroke-width:0.5;" width="502.1381" x="7" y="47.0679"/><ellipse cx="236.7881" cy="63.0679" fill="#B4A7E5" rx="11" ry="11" style="stroke:#181818;stroke-width:1;"/><path d="M232.8194,69.5679 L232.8194,67.8648 L235.1787,67.5992 L235.1787,59.396 L232.8194,59.1304 L232.8194,57.4273 L239.96,57.4273 L239.96,59.1304 L237.5381,59.396 L237.5381,67.5992 L239.96,67.8648 L239.96,69.5679 L232.8194,69.5679 Z " fill="#000000"/><text fill="#000000" font-family="sans-serif" font-size="14" font-style="italic" lengthAdjust="spacing" textLength="34.0619" x="257.2881" y="68.4999">Tiling</text><line style="stroke:#181818;stroke-width:0.5;" x1="8" x2="508.1381" y1="79.0679" y2="79.0679"/><line style="stroke:#181818;stroke-width:0.5;" x1="8" x2="508.1381" y1="87.0679" y2="87.0679"/><text fill="#000000" font-family="sans-serif" font-size="14" lengthAdjust="spacing" textLength="490.1381" x="13" y="106.0339">cv::Mat generate(DocumentPreset preset, std::vector&lt;ImgSource&gt; images)</text></g><!--class GridTiling--><g class="entity" data-entity="GridTiling" data-source-line="8" data-uid="ent0003" id="entity_GridTiling"><rect fill="#F1F1F1" height="67.0679" rx="2.5" ry="2.5" style="stroke:#181818;stroke-width:0.5;" width="141.8775" x="99.13" y="174.1379"/><ellipse cx="134.7399" cy="190.1379" fill="#ADD1B2" rx="11" ry="11" style="stroke:#181818;stroke-width:1;"/><path d="M134.2086,197.0598 Q132.4586,197.0598 131.318,196.3254 Q130.193,195.5754 129.6305,194.2317 Q129.0836,192.8723 129.0836,191.0754 Q129.0836,189.0442 129.7399,187.591 Q130.3961,186.1379 131.6774,185.3567 Q132.9586,184.5754 134.8336,184.5754 Q135.7243,184.5754 136.3961,184.7629 Q137.068,184.9348 137.7555,185.2785 L136.943,187.2942 Q136.318,186.9817 135.7711,186.8567 Q135.2399,186.7317 134.7555,186.7317 Q133.5836,186.7317 132.8805,187.2629 Q132.1774,187.7942 131.8805,188.7473 Q131.5836,189.7004 131.5836,190.966 Q131.5836,192.9817 132.3024,193.9504 Q133.0211,194.9035 134.6149,194.9035 Q135.2086,194.9035 135.8336,194.7473 Q136.4586,194.591 137.2868,194.216 L137.2868,196.4348 Q136.5524,196.7473 135.7555,196.9035 Q134.9743,197.0598 134.2086,197.0598 Z " fill="#000000"/><text fill="#000000" font-family="sans-serif" font-size="14" lengthAdjust="spacing" textLength="64.0777" x="153.3199" y="195.5699">GridTiling</text><line style="stroke:#181818;stroke-width:0.5;" x1="100.13" x2="240.0075" y1="206.1379" y2="206.1379"/><line style="stroke:#181818;stroke-width:0.5;" x1="100.13" x2="240.0075" y1="214.1379" y2="214.1379"/><text fill="#000000" font-family="sans-serif" font-size="14" lengthAdjust="spacing" textLength="129.8775" x="105.13" y="233.1039">cv::Mat generate(...)</text></g><!--class StripTiling--><g class="entity" data-entity="StripTiling" data-source-line="13" data-uid="ent0005" id="entity_StripTiling"><rect fill="#F1F1F1" height="67.0679" rx="2.5" ry="2.5" style="stroke:#181818;stroke-width:0.5;" width="141.8775" x="276.13" y="174.1379"/><ellipse cx="310.5933" cy="190.1379" fill="#ADD1B2" rx="11" ry="11" style="stroke:#181818;stroke-width:1;"/><path d="M310.062,197.0598 Q308.312,197.0598 307.1714,196.3254 Q306.0464,195.5754 305.4839,194.2317 Q304.937,192.8723 304.937,191.0754 Q304.937,189.0442 305.5933,187.591 Q306.2495,186.1379 307.5308,185.3567 Q308.812,184.5754 310.687,184.5754 Q311.5777,184.5754 312.2495,184.7629 Q312.9214,184.9348 313.6089,185.2785 L312.7964,187.2942 Q312.1714,186.9817 311.6245,186.8567 Q311.0933,186.7317 310.6089,186.7317 Q309.437,186.7317 308.7339,187.2629 Q308.0308,187.7942 307.7339,188.7473 Q307.437,189.7004 307.437,190.966 Q307.437,192.9817 308.1558,193.9504 Q308.8745,194.9035 310.4683,194.9035 Q311.062,194.9035 311.687,194.7473 Q312.312,194.591 313.1402,194.216 L313.1402,196.4348 Q312.4058,196.7473 311.6089,196.9035 Q310.8277,197.0598 310.062,197.0598 Z " fill="#000000"/><text fill="#000000" font-family="sans-serif" font-size="14" lengthAdjust="spacing" textLength="66.6257" x="328.9185" y="195.5699">StripTiling</text><line style="stroke:#181818;stroke-width:0.5;" x1="277.13" x2="417.0075" y1="206.1379" y2="206.1379"/><line style="stroke:#181818;stroke-width:0.5;" x1="277.13" x2="417.0075" y1="214.1379" y2="214.1379"/><text fill="#000000" font-family="sans-serif" font-size="14" lengthAdjust="spacing" textLength="129.8775" x="282.13" y="233.1039">cv::Mat generate(...)</text></g><!--reverse link Tiling to GridTiling--><g class="link" data-entity-1="Tiling" data-entity-2="GridTiling" data-source-line="11" data-uid="lnk4" id="link_Tiling_GridTiling"><path codeLine="11" d="M224.5879,129.1862 C211.6479,147.5662 205.95,155.6879 193.04,174.0379" fill="none" id="Tiling-backto-GridTiling" style="stroke:#181818;stroke-width:1;"/><polygon fill="none" points="234.95,114.4679,219.6819,125.7322,229.494,132.6402,234.95,114.4679" style="stroke:#181818;stroke-width:1;"/></g><!--reverse link Tiling to StripTiling--><g class="link" data-entity-1="Tiling" data-entity-2="StripTiling" data-source-line="16" data-uid="lnk6" id="link_Tiling_StripTiling"><path codeLine="16" d="M291.8866,129.1334 C304.9666,147.5134 310.79,155.6879 323.84,174.0379" fill="none" id="Tiling-backto-StripTiling" style="stroke:#181818;stroke-width:1;"/><polygon fill="none" points="281.45,114.4679,286.9981,132.6123,296.7751,125.6546,281.45,114.4679" style="stroke:#181818;stroke-width:1;"/></g><!--SRC=[bOrB2i9044JtVOfUAfWSO0Xk5CI58CGB39DsQ9YPX9vE5duEb7FaOdvGo4gmDhMfzqfP0-4cK-ocyJAD6O2Jafoj8pnnuEJn2lYC6umvM4LFYSGgBRQjwoCbFGfbKkpUjSAiZJ43EMsbsaTVjxquMYD7woaluGxWWiqPTyBDxuEoB5_xpwYw5SKC-cfg5Ux-zimeU000]--></g></svg>