<svg xmlns="http://www.w3.org/2000/svg" xmlns:xlink="http://www.w3.org/1999/xlink" contentStyleType="text/css" data-diagram-type="CLASS" height="743px" preserveAspectRatio="none" style="width:600px;height:743px;background:#FFFFFF;" version="1.1" viewBox="0 0 600 743" width="600px" zoomAndPan="magnify"><title>UI</title><defs/><g><text fill="#000000" font-family="sans-serif" font-size="14" font-weight="bold" lengthAdjust="spacing" textLength="16.0299" x="285.4729" y="24.9659">UI</text><!--class Application--><g class="entity" data-entity="Application" data-source-line="4" data-uid="ent0002" id="entity_Application"><rect fill="#F1F1F1" height="48" rx="2.5" ry="2.5" style="stroke:#181818;stroke-width:0.5;" width="105.7517" x="205.76" y="240.8779"/><ellipse cx="220.76" cy="256.8779" fill="#ADD1B2" rx="11" ry="11" style="stroke:#181818;stroke-width:1;"/><path d="M217.1194,263.3779 L217.1194,251.2373 L224.7756,251.2373 L224.7756,253.3623 L219.4944,253.3623 L219.4944,256.0185 L224.51,256.0185 L224.51,258.1435 L219.4944,258.1435 L219.4944,261.2529 L224.7756,261.2529 L224.7756,263.3779 L217.1194,263.3779 Z " fill="#000000"/><text fill="#000000" font-family="sans-serif" font-size="14" lengthAdjust="spacing" textLength="73.7517" x="234.76" y="262.3099">Application</text><line style="stroke:#181818;stroke-width:0.5;" x1="206.76" x2="310.5117" y1="272.8779" y2="272.8779"/><line style="stroke:#181818;stroke-width:0.5;" x1="206.76" x2="310.5117" y1="280.8779" y2="280.8779"/></g><!--class SourceEntryView--><g class="entity" data-entity="SourceEntryView" data-source-line="8" data-uid="ent0003" id="entity_SourceEntryView"><rect fill="#F1F1F1" height="105.2038" rx="2.5" ry="2.5" style="stroke:#181818;stroke-width:0.5;" width="142.5296" x="346.37" y="212.2779"/><ellipse cx="361.37" cy="228.2779" fill="#ADD1B2" rx="11" ry="11" style="stroke:#181818;stroke-width:1;"/><path d="M360.8388,235.1998 Q359.0888,235.1998 357.9481,234.4654 Q356.8231,233.7154 356.2606,232.3717 Q355.7138,231.0123 355.7138,229.2154 Q355.7138,227.1842 356.37,225.731 Q357.0263,224.2779 358.3075,223.4967 Q359.5888,222.7154 361.4638,222.7154 Q362.3544,222.7154 363.0263,222.9029 Q363.6981,223.0748 364.3856,223.4185 L363.5731,225.4342 Q362.9481,225.1217 362.4013,224.9967 Q361.87,224.8717 361.3856,224.8717 Q360.2138,224.8717 359.5106,225.4029 Q358.8075,225.9342 358.5106,226.8873 Q358.2138,227.8404 358.2138,229.106 Q358.2138,231.1217 358.9325,232.0904 Q359.6513,233.0435 361.245,233.0435 Q361.8388,233.0435 362.4638,232.8873 Q363.0888,232.731 363.9169,232.356 L363.9169,234.5748 Q363.1825,234.8873 362.3856,235.0435 Q361.6044,235.1998 360.8388,235.1998 Z " fill="#000000"/><text fill="#000000" font-family="sans-serif" font-size="14" lengthAdjust="spacing" textLength="110.5296" x="375.37" y="233.7099">SourceEntryView</text><line style="stroke:#181818;stroke-width:0.5;" x1="347.37" x2="487.8996" y1="244.2779" y2="244.2779"/><line style="stroke:#181818;stroke-width:0.5;" x1="347.37" x2="487.8996" y1="252.2779" y2="252.2779"/><text fill="#000000" font-family="sans-serif" font-size="14" lengthAdjust="spacing" textLength="126.2655" x="352.37" y="271.2439">void remove(index)</text><text fill="#000000" font-family="sans-serif" font-size="14" lengthAdjust="spacing" textLength="120.6515" x="352.37" y="290.3118">void addFiles(files)</text><text fill="#000000" font-family="sans-serif" font-size="14" lengthAdjust="spacing" textLength="71.7077" x="352.37" y="309.3797">void clear()</text></g><!--class ImageSourceView--><g class="entity" data-entity="ImageSourceView" data-source-line="15" data-uid="ent0005" id="entity_ImageSourceView"><rect fill="#F1F1F1" height="105.2038" rx="2.5" ry="2.5" style="stroke:#181818;stroke-width:0.5;" width="256.6771" x="289.29" y="377.4779"/><ellipse cx="354.2218" cy="393.4779" fill="#ADD1B2" rx="11" ry="11" style="stroke:#181818;stroke-width:1;"/><path d="M353.6905,400.3998 Q351.9405,400.3998 350.7999,399.6654 Q349.6749,398.9154 349.1124,397.5717 Q348.5655,396.2123 348.5655,394.4154 Q348.5655,392.3842 349.2218,390.931 Q349.878,389.4779 351.1593,388.6967 Q352.4405,387.9154 354.3155,387.9154 Q355.2062,387.9154 355.878,388.1029 Q356.5499,388.2748 357.2374,388.6185 L356.4249,390.6342 Q355.7999,390.3217 355.253,390.1967 Q354.7218,390.0717 354.2374,390.0717 Q353.0655,390.0717 352.3624,390.6029 Q351.6593,391.1342 351.3624,392.0873 Q351.0655,393.0404 351.0655,394.306 Q351.0655,396.3217 351.7843,397.2904 Q352.503,398.2435 354.0968,398.2435 Q354.6905,398.2435 355.3155,398.0873 Q355.9405,397.931 356.7687,397.556 L356.7687,399.7748 Q356.0343,400.0873 355.2374,400.2435 Q354.4562,400.3998 353.6905,400.3998 Z " fill="#000000"/><text fill="#000000" font-family="sans-serif" font-size="14" lengthAdjust="spacing" textLength="118.3135" x="374.7218" y="398.9099">ImageSourceView</text><line style="stroke:#181818;stroke-width:0.5;" x1="290.29" x2="544.9671" y1="409.4779" y2="409.4779"/><line style="stroke:#181818;stroke-width:0.5;" x1="290.29" x2="544.9671" y1="417.4779" y2="417.4779"/><text fill="#000000" font-family="sans-serif" font-size="14" lengthAdjust="spacing" textLength="212.5052" x="295.29" y="436.4439">ImageSource get_imagesource()</text><text fill="#000000" font-family="sans-serif" font-size="14" lengthAdjust="spacing" textLength="167.8594" x="295.29" y="455.5118">void load_from_json(json)</text><text fill="#000000" font-family="sans-serif" font-size="14" lengthAdjust="spacing" textLength="244.6771" x="295.29" y="474.5797">map&lt;string, string&gt; propbe_presets()</text></g><!--class FilterView--><g class="entity" data-entity="FilterView" data-source-line="22" data-uid="ent0007" id="entity_FilterView"><rect fill="#F1F1F1" height="86.1358" rx="2.5" ry="2.5" style="stroke:#181818;stroke-width:0.5;" width="179.8594" x="327.7" y="542.6779"/><ellipse cx="383.6018" cy="558.6779" fill="#A9DCDF" rx="11" ry="11" style="stroke:#181818;stroke-width:1;"/><path d="M378.7737,564.4279 L382.1174,552.2404 L385.258,552.2404 L388.633,564.4279 L386.1643,564.4279 L385.4299,561.4123 L381.9143,561.4123 L381.1643,564.4279 L378.7737,564.4279 Z M383.1799,556.381 L382.4299,559.381 L384.9455,559.381 L384.2268,556.381 Q384.0862,555.8029 383.9612,555.256 Q383.8362,554.6935 383.6955,554.1154 Q383.5862,554.6935 383.4455,555.256 Q383.3049,555.8029 383.1799,556.381 Z " fill="#000000"/><text fill="#000000" font-family="sans-serif" font-size="14" font-style="italic" lengthAdjust="spacing" textLength="59.5558" x="404.1018" y="564.1099">FilterView</text><line style="stroke:#181818;stroke-width:0.5;" x1="328.7" x2="506.5594" y1="574.6779" y2="574.6779"/><line style="stroke:#181818;stroke-width:0.5;" x1="328.7" x2="506.5594" y1="582.6779" y2="582.6779"/><text fill="#000000" font-family="sans-serif" font-size="14" lengthAdjust="spacing" textLength="103.8096" x="333.7" y="601.6439">Filter get_filter()</text><text fill="#000000" font-family="sans-serif" font-size="14" lengthAdjust="spacing" textLength="167.8594" x="333.7" y="620.7118">void load_from_json(json)</text></g><!--class MaskView--><g class="entity" data-entity="MaskView" data-source-line="28" data-uid="ent0009" id="entity_MaskView"><rect fill="#F1F1F1" height="48" rx="2.5" ry="2.5" style="stroke:#181818;stroke-width:0.5;" width="97.6457" x="231.81" y="688.8179"/><ellipse cx="246.81" cy="704.8179" fill="#ADD1B2" rx="11" ry="11" style="stroke:#181818;stroke-width:1;"/><path d="M246.2788,711.7398 Q244.5288,711.7398 243.3881,711.0054 Q242.2631,710.2554 241.7006,708.9117 Q241.1538,707.5523 241.1538,705.7554 Q241.1538,703.7242 241.81,702.271 Q242.4663,700.8179 243.7475,700.0367 Q245.0288,699.2554 246.9038,699.2554 Q247.7944,699.2554 248.4663,699.4429 Q249.1381,699.6148 249.8256,699.9585 L249.0131,701.9742 Q248.3881,701.6617 247.8413,701.5367 Q247.31,701.4117 246.8256,701.4117 Q245.6538,701.4117 244.9506,701.9429 Q244.2475,702.4742 243.9506,703.4273 Q243.6538,704.3804 243.6538,705.646 Q243.6538,707.6617 244.3725,708.6304 Q245.0913,709.5835 246.685,709.5835 Q247.2788,709.5835 247.9038,709.4273 Q248.5288,709.271 249.3569,708.896 L249.3569,711.1148 Q248.6225,711.4273 247.8256,711.5835 Q247.0444,711.7398 246.2788,711.7398 Z " fill="#000000"/><text fill="#000000" font-family="sans-serif" font-size="14" lengthAdjust="spacing" textLength="65.6457" x="260.81" y="710.2499">MaskView</text><line style="stroke:#181818;stroke-width:0.5;" x1="232.81" x2="328.4557" y1="720.8179" y2="720.8179"/><line style="stroke:#181818;stroke-width:0.5;" x1="232.81" x2="328.4557" y1="728.8179" y2="728.8179"/></g><!--class RotateView--><g class="entity" data-entity="RotateView" data-source-line="32" data-uid="ent0011" id="entity_RotateView"><rect fill="#F1F1F1" height="48" rx="2.5" ry="2.5" style="stroke:#181818;stroke-width:0.5;" width="105.9477" x="364.66" y="688.8179"/><ellipse cx="379.66" cy="704.8179" fill="#ADD1B2" rx="11" ry="11" style="stroke:#181818;stroke-width:1;"/><path d="M379.1288,711.7398 Q377.3788,711.7398 376.2381,711.0054 Q375.1131,710.2554 374.5506,708.9117 Q374.0038,707.5523 374.0038,705.7554 Q374.0038,703.7242 374.66,702.271 Q375.3163,700.8179 376.5975,700.0367 Q377.8788,699.2554 379.7538,699.2554 Q380.6444,699.2554 381.3163,699.4429 Q381.9881,699.6148 382.6756,699.9585 L381.8631,701.9742 Q381.2381,701.6617 380.6913,701.5367 Q380.16,701.4117 379.6756,701.4117 Q378.5038,701.4117 377.8006,701.9429 Q377.0975,702.4742 376.8006,703.4273 Q376.5038,704.3804 376.5038,705.646 Q376.5038,707.6617 377.2225,708.6304 Q377.9413,709.5835 379.535,709.5835 Q380.1288,709.5835 380.7538,709.4273 Q381.3788,709.271 382.2069,708.896 L382.2069,711.1148 Q381.4725,711.4273 380.6756,711.5835 Q379.8944,711.7398 379.1288,711.7398 Z " fill="#000000"/><text fill="#000000" font-family="sans-serif" font-size="14" lengthAdjust="spacing" textLength="73.9477" x="393.66" y="710.2499">RotateView</text><line style="stroke:#181818;stroke-width:0.5;" x1="365.66" x2="469.6077" y1="720.8179" y2="720.8179"/><line style="stroke:#181818;stroke-width:0.5;" x1="365.66" x2="469.6077" y1="728.8179" y2="728.8179"/></g><!--class SizeView--><g class="entity" data-entity="SizeView" data-source-line="36" data-uid="ent0013" id="entity_SizeView"><rect fill="#F1F1F1" height="48" rx="2.5" ry="2.5" style="stroke:#181818;stroke-width:0.5;" width="88.6858" x="505.29" y="688.8179"/><ellipse cx="520.29" cy="704.8179" fill="#ADD1B2" rx="11" ry="11" style="stroke:#181818;stroke-width:1;"/><path d="M519.7588,711.7398 Q518.0088,711.7398 516.8681,711.0054 Q515.7431,710.2554 515.1806,708.9117 Q514.6338,707.5523 514.6338,705.7554 Q514.6338,703.7242 515.29,702.271 Q515.9463,700.8179 517.2275,700.0367 Q518.5088,699.2554 520.3838,699.2554 Q521.2744,699.2554 521.9463,699.4429 Q522.6181,699.6148 523.3056,699.9585 L522.4931,701.9742 Q521.8681,701.6617 521.3213,701.5367 Q520.79,701.4117 520.3056,701.4117 Q519.1338,701.4117 518.4306,701.9429 Q517.7275,702.4742 517.4306,703.4273 Q517.1338,704.3804 517.1338,705.646 Q517.1338,707.6617 517.8525,708.6304 Q518.5713,709.5835 520.165,709.5835 Q520.7588,709.5835 521.3838,709.4273 Q522.0088,709.271 522.8369,708.896 L522.8369,711.1148 Q522.1025,711.4273 521.3056,711.5835 Q520.5244,711.7398 519.7588,711.7398 Z " fill="#000000"/><text fill="#000000" font-family="sans-serif" font-size="14" lengthAdjust="spacing" textLength="56.6858" x="534.29" y="710.2499">SizeView</text><line style="stroke:#181818;stroke-width:0.5;" x1="506.29" x2="592.9758" y1="720.8179" y2="720.8179"/><line style="stroke:#181818;stroke-width:0.5;" x1="506.29" x2="592.9758" y1="728.8179" y2="728.8179"/></g><!--class DocumentPropertiesView--><g class="entity" data-entity="DocumentPropertiesView" data-source-line="41" data-uid="ent0015" id="entity_DocumentPropertiesView"><rect fill="#F1F1F1" height="105.2038" rx="2.5" ry="2.5" style="stroke:#181818;stroke-width:0.5;" width="257.2651" x="7" y="47.0679"/><ellipse cx="47.7948" cy="63.0679" fill="#ADD1B2" rx="11" ry="11" style="stroke:#181818;stroke-width:1;"/><path d="M47.2635,69.9898 Q45.5135,69.9898 44.3729,69.2554 Q43.2479,68.5054 42.6854,67.1617 Q42.1385,65.8023 42.1385,64.0054 Q42.1385,61.9742 42.7948,60.521 Q43.451,59.0679 44.7323,58.2867 Q46.0135,57.5054 47.8885,57.5054 Q48.7792,57.5054 49.451,57.6929 Q50.1229,57.8648 50.8104,58.2085 L49.9979,60.2242 Q49.3729,59.9117 48.826,59.7867 Q48.2948,59.6617 47.8104,59.6617 Q46.6385,59.6617 45.9354,60.1929 Q45.2323,60.7242 44.9354,61.6773 Q44.6385,62.6304 44.6385,63.896 Q44.6385,65.9117 45.3573,66.8804 Q46.076,67.8335 47.6698,67.8335 Q48.2635,67.8335 48.8885,67.6773 Q49.5135,67.521 50.3417,67.146 L50.3417,69.3648 Q49.6073,69.6773 48.8104,69.8335 Q48.0292,69.9898 47.2635,69.9898 Z " fill="#000000"/><text fill="#000000" font-family="sans-serif" font-size="14" lengthAdjust="spacing" textLength="167.9433" x="67.527" y="68.4999">DocumentPropertiesView</text><line style="stroke:#181818;stroke-width:0.5;" x1="8" x2="263.2651" y1="79.0679" y2="79.0679"/><line style="stroke:#181818;stroke-width:0.5;" x1="8" x2="263.2651" y1="87.0679" y2="87.0679"/><text fill="#000000" font-family="sans-serif" font-size="14" lengthAdjust="spacing" textLength="245.2651" x="13" y="106.0339">DocumentProperties get_properties()</text><text fill="#000000" font-family="sans-serif" font-size="14" lengthAdjust="spacing" textLength="167.8594" x="13" y="125.1018">void load_from_json(json)</text><text fill="#000000" font-family="sans-serif" font-size="14" lengthAdjust="spacing" textLength="244.6771" x="13" y="144.1697">map&lt;string, string&gt; propbe_presets()</text></g><!--class ControlView--><g class="entity" data-entity="ControlView" data-source-line="49" data-uid="ent0017" id="entity_ControlView"><rect fill="#F1F1F1" height="105.2038" rx="2.5" ry="2.5" style="stroke:#181818;stroke-width:0.5;" width="111.7997" x="58.73" y="212.2779"/><ellipse cx="73.73" cy="228.2779" fill="#ADD1B2" rx="11" ry="11" style="stroke:#181818;stroke-width:1;"/><path d="M73.1987,235.1998 Q71.4487,235.1998 70.3081,234.4654 Q69.1831,233.7154 68.6206,232.3717 Q68.0737,231.0123 68.0737,229.2154 Q68.0737,227.1842 68.73,225.731 Q69.3862,224.2779 70.6675,223.4967 Q71.9487,222.7154 73.8237,222.7154 Q74.7144,222.7154 75.3862,222.9029 Q76.0581,223.0748 76.7456,223.4185 L75.9331,225.4342 Q75.3081,225.1217 74.7612,224.9967 Q74.23,224.8717 73.7456,224.8717 Q72.5737,224.8717 71.8706,225.4029 Q71.1675,225.9342 70.8706,226.8873 Q70.5737,227.8404 70.5737,229.106 Q70.5737,231.1217 71.2925,232.0904 Q72.0112,233.0435 73.605,233.0435 Q74.1987,233.0435 74.8237,232.8873 Q75.4487,232.731 76.2769,232.356 L76.2769,234.5748 Q75.5425,234.8873 74.7456,235.0435 Q73.9644,235.1998 73.1987,235.1998 Z " fill="#000000"/><text fill="#000000" font-family="sans-serif" font-size="14" lengthAdjust="spacing" textLength="79.7997" x="87.73" y="233.7099">ControlView</text><line style="stroke:#181818;stroke-width:0.5;" x1="59.73" x2="169.5297" y1="244.2779" y2="244.2779"/><line style="stroke:#181818;stroke-width:0.5;" x1="59.73" x2="169.5297" y1="252.2779" y2="252.2779"/><text fill="#000000" font-family="sans-serif" font-size="14" lengthAdjust="spacing" textLength="99.4836" x="64.73" y="271.2439">void generate()</text><text fill="#000000" font-family="sans-serif" font-size="14" lengthAdjust="spacing" textLength="69.4117" x="64.73" y="290.3118">void save()</text><text fill="#000000" font-family="sans-serif" font-size="14" lengthAdjust="spacing" textLength="71.5537" x="64.73" y="309.3797">void print()</text></g><!--class Preview--><g class="entity" data-entity="Preview" data-source-line="56" data-uid="ent0019" id="entity_Preview"><rect fill="#F1F1F1" height="67.0679" rx="2.5" ry="2.5" style="stroke:#181818;stroke-width:0.5;" width="165.7194" x="298.77" y="66.1379"/><ellipse cx="351.4938" cy="82.1379" fill="#ADD1B2" rx="11" ry="11" style="stroke:#181818;stroke-width:1;"/><path d="M350.9626,89.0598 Q349.2126,89.0598 348.0719,88.3254 Q346.9469,87.5754 346.3844,86.2317 Q345.8376,84.8723 345.8376,83.0754 Q345.8376,81.0442 346.4938,79.591 Q347.1501,78.1379 348.4313,77.3567 Q349.7126,76.5754 351.5876,76.5754 Q352.4782,76.5754 353.1501,76.7629 Q353.8219,76.9348 354.5094,77.2785 L353.6969,79.2942 Q353.0719,78.9817 352.5251,78.8567 Q351.9938,78.7317 351.5094,78.7317 Q350.3376,78.7317 349.6344,79.2629 Q348.9313,79.7942 348.6344,80.7473 Q348.3376,81.7004 348.3376,82.966 Q348.3376,84.9817 349.0563,85.9504 Q349.7751,86.9035 351.3688,86.9035 Q351.9626,86.9035 352.5876,86.7473 Q353.2126,86.591 354.0407,86.216 L354.0407,88.4348 Q353.3063,88.7473 352.5094,88.9035 Q351.7282,89.0598 350.9626,89.0598 Z " fill="#000000"/><text fill="#000000" font-family="sans-serif" font-size="14" lengthAdjust="spacing" textLength="51.7718" x="371.9938" y="87.5699">Preview</text><line style="stroke:#181818;stroke-width:0.5;" x1="299.77" x2="463.4894" y1="98.1379" y2="98.1379"/><line style="stroke:#181818;stroke-width:0.5;" x1="299.77" x2="463.4894" y1="106.1379" y2="106.1379"/><text fill="#000000" font-family="sans-serif" font-size="14" lengthAdjust="spacing" textLength="153.7194" x="304.77" y="125.1039">void set_image(cv::Mat)</text></g><!--class Tiling--><g class="entity" data-entity="Tiling" data-source-line="62" data-uid="ent0021" id="entity_Tiling"><rect fill="#F1F1F1" height="67.0679" rx="2.5" ry="2.5" style="stroke:#181818;stroke-width:0.5;" width="141.8775" x="43.69" y="396.5479"/><ellipse cx="93.3478" cy="412.5479" fill="#A9DCDF" rx="11" ry="11" style="stroke:#181818;stroke-width:1;"/><path d="M88.5197,418.2979 L91.8634,406.1104 L95.0041,406.1104 L98.3791,418.2979 L95.9103,418.2979 L95.1759,415.2823 L91.6603,415.2823 L90.9103,418.2979 L88.5197,418.2979 Z M92.9259,410.251 L92.1759,413.251 L94.6916,413.251 L93.9728,410.251 Q93.8322,409.6729 93.7072,409.126 Q93.5822,408.5635 93.4416,407.9854 Q93.3322,408.5635 93.1916,409.126 Q93.0509,409.6729 92.9259,410.251 Z " fill="#000000"/><text fill="#000000" font-family="sans-serif" font-size="14" font-style="italic" lengthAdjust="spacing" textLength="34.0619" x="113.8478" y="417.9799">Tiling</text><line style="stroke:#181818;stroke-width:0.5;" x1="44.69" x2="184.5675" y1="428.5479" y2="428.5479"/><line style="stroke:#181818;stroke-width:0.5;" x1="44.69" x2="184.5675" y1="436.5479" y2="436.5479"/><text fill="#000000" font-family="sans-serif" font-size="14" lengthAdjust="spacing" textLength="129.8775" x="49.69" y="455.5139">cv::Mat generate(...)</text></g><!--reverse link Application to SourceEntryView--><g class="link" data-entity-1="Application" data-entity-2="SourceEntryView" data-source-line="13" data-uid="lnk4" id="link_Application_SourceEntryView"><path codeLine="13" d="M323.74,264.8779 C335.18,264.8779 334.63,264.8779 346.07,264.8779" fill="none" id="Application-backto-SourceEntryView" style="stroke:#181818;stroke-width:1;"/><polygon fill="#181818" points="311.74,264.8779,317.74,268.8779,323.74,264.8779,317.74,260.8779,311.74,264.8779" style="stroke:#181818;stroke-width:1;"/></g><!--reverse link SourceEntryView to ImageSourceView--><g class="link" data-entity-1="SourceEntryView" data-entity-2="ImageSourceView" data-source-line="20" data-uid="lnk6" id="link_SourceEntryView_ImageSourceView"><path codeLine="20" d="M417.63,329.9679 C417.63,348.8979 417.63,358.2879 417.63,377.2079" fill="none" id="SourceEntryView-backto-ImageSourceView" style="stroke:#181818;stroke-width:1;"/><polygon fill="#181818" points="417.63,317.9679,413.63,323.9679,417.63,329.9679,421.63,323.9679,417.63,317.9679" style="stroke:#181818;stroke-width:1;"/><text fill="#000000" font-family="sans-serif" font-size="13" lengthAdjust="spacing" textLength="7.163" x="410.1495" y="365.5242">*</text></g><!--reverse link ImageSourceView to FilterView--><g class="link" data-entity-1="ImageSourceView" data-entity-2="FilterView" data-source-line="26" data-uid="lnk8" id="link_ImageSourceView_FilterView"><path codeLine="26" d="M417.63,495.1079 C417.63,514.4379 417.63,524.1079 417.63,542.4679" fill="none" id="ImageSourceView-backto-FilterView" style="stroke:#181818;stroke-width:1;"/><polygon fill="#181818" points="417.63,483.1079,413.63,489.1079,417.63,495.1079,421.63,489.1079,417.63,483.1079" style="stroke:#181818;stroke-width:1;"/><text fill="#000000" font-family="sans-serif" font-size="13" lengthAdjust="spacing" textLength="7.163" x="410.0639" y="530.8477">*</text></g><!--reverse link FilterView to MaskView--><g class="link" data-entity-1="FilterView" data-entity-2="MaskView" data-source-line="30" data-uid="lnk10" id="link_FilterView_MaskView"><path codeLine="30" d="M357.9602,641.228 C336.2302,661.078 324.45,671.8179 306.2,688.4779" fill="none" id="FilterView-backto-MaskView" style="stroke:#181818;stroke-width:1;"/><polygon fill="none" points="371.25,629.0879,353.9135,636.798,362.0069,645.6579,371.25,629.0879" style="stroke:#181818;stroke-width:1;"/></g><!--reverse link FilterView to RotateView--><g class="link" data-entity-1="FilterView" data-entity-2="RotateView" data-source-line="34" data-uid="lnk12" id="link_FilterView_RotateView"><path codeLine="34" d="M417.63,647.0879 C417.63,666.9379 417.63,671.8179 417.63,688.4779" fill="none" id="FilterView-backto-RotateView" style="stroke:#181818;stroke-width:1;"/><polygon fill="none" points="417.63,629.0879,411.63,647.0879,423.63,647.0879,417.63,629.0879" style="stroke:#181818;stroke-width:1;"/></g><!--reverse link FilterView to SizeView--><g class="link" data-entity-1="FilterView" data-entity-2="SizeView" data-source-line="38" data-uid="lnk14" id="link_FilterView_SizeView"><path codeLine="38" d="M475.3834,641.4713 C496.3234,661.3213 507.41,671.8179 525,688.4779" fill="none" id="FilterView-backto-SizeView" style="stroke:#181818;stroke-width:1;"/><polygon fill="none" points="462.32,629.0879,471.2556,645.8258,479.5112,637.1168,462.32,629.0879" style="stroke:#181818;stroke-width:1;"/></g><!--link DocumentPropertiesView to Application--><g class="link" data-entity-1="DocumentPropertiesView" data-entity-2="Application" data-source-line="46" data-uid="lnk16" id="link_DocumentPropertiesView_Application"><path codeLine="46" d="M174.89,152.7579 C197.11,182.2379 216.5765,208.0756 233.7565,230.8656" fill="none" id="DocumentPropertiesView-to-Application" style="stroke:#181818;stroke-width:1;"/><polygon fill="#181818" points="240.98,240.4479,240.5623,233.2489,233.7565,230.8656,234.1741,238.0646,240.98,240.4479" style="stroke:#181818;stroke-width:1;"/></g><!--link ControlView to Application--><g class="link" data-entity-1="ControlView" data-entity-2="Application" data-source-line="54" data-uid="lnk18" id="link_ControlView_Application"><path codeLine="54" d="M170.88,264.8779 C182.42,264.8779 181.96,264.8779 193.5,264.8779" fill="none" id="ControlView-to-Application" style="stroke:#181818;stroke-width:1;"/><polygon fill="#181818" points="205.5,264.8779,199.5,260.8779,193.5,264.8779,199.5,268.8779,205.5,264.8779" style="stroke:#181818;stroke-width:1;"/></g><!--link Preview to Application--><g class="link" data-entity-1="Preview" data-entity-2="Application" data-source-line="59" data-uid="lnk20" id="link_Preview_Application"><path codeLine="59" d="M356.74,133.6979 C332.87,165.3679 304.6608,202.7935 283.5508,230.8135" fill="none" id="Preview-to-Application" style="stroke:#181818;stroke-width:1;"/><polygon fill="#181818" points="276.33,240.3979,283.1352,238.0127,283.5508,230.8135,276.7456,233.1988,276.33,240.3979" style="stroke:#181818;stroke-width:1;"/></g><!--link ControlView to Tiling--><g class="link" data-entity-1="ControlView" data-entity-2="Tiling" data-source-line="65" data-uid="lnk22" id="link_ControlView_Tiling"><path codeLine="65" d="M114.63,317.9679 C114.63,343.7079 114.63,367.9879 114.63,390.4279" fill="none" id="ControlView-to-Tiling" style="stroke:#181818;stroke-width:1;"/><polygon fill="#181818" points="114.63,396.4279,118.63,387.4279,114.63,391.4279,110.63,387.4279,114.63,396.4279" style="stroke:#181818;stroke-width:1;"/></g><!--SRC=[hLBRRi8m37tFLqGybMhb0n12cdQHU412kxrMeJLLjZI94jEDRVpxqalQK8RsiZwaiO_jS-mOEGgWpoj2G2B70xtMMl2C8LUIVf4Z8IGJp5hwgFOcWpk9vl32uTrXr7sLuZarKAeA8Yvp-9WERfRdzro0ZNRr6G2P06QYgIiUaiN9cCDJhqfMG8i5r86N5e0fhstRs5509XJBqvrHPVfgbOpgeqLBfXSM3PV55Mt_IwgDqbj8jG4BQ1k9uxxZ9A6JU38MHGZRkYeiG-gQHZ21qjRHYDmrrp_r7ScuPqyx5FVJMJFxrf4TIS2z-7Of7lJ13mePmiNm0UwVdNzU3lTWloItAjkNRf4sRevWa8CDnd0EDYFHlVcVptP1IPB4uORtmc-KUs0bnfjTW0JZ9X8giwmwiRNJW0rdM6JCqz9i35GE3HYitzmeg-RpDSEwK1VsYzf-oPwuSArtMhlKGUviDZiJb2ox9F83]--></g></svg>